<svg width="221.627" height="62.04" viewBox="0 0 58.639 16.415" xmlns="http://www.w3.org/2000/svg"><g style="display:inline"><g style="font-size:8.20226px;line-height:1.25;font-family:Neuropolitical;-inkscape-font-specification:Neuropolitical;letter-spacing:0;word-spacing:0;fill:#497592;stroke-width:.5;stroke-linejoin:round;stroke-opacity:.137778;paint-order:stroke markers fill"><path d="M149.17 55.21q0 .216-.077.468-.076.249-.248.465-.168.212-.445.356-.272.145-.665.145h-1.878v-.99h1.878q.213 0 .329-.128.116-.132.116-.324 0-.204-.132-.32-.128-.117-.313-.117h-1.878q-.212 0-.328.132-.116.129-.116.32v1.455q0 .208.128.324.132.116.324.116h1.87v.993h-1.878q-.216 0-.468-.076-.249-.076-.465-.244-.212-.172-.357-.445-.144-.276-.144-.668V55.21q0-.216.076-.465.077-.252.245-.464.172-.217.444-.36.277-.145.67-.145h1.877q.217 0 .465.076.252.076.465.248.216.169.36.445.144.272.144.665zm4.801-1.114q.064.149.032.3-.028.153-.136.265l-2.407 2.403h2.503v1.041h-3.756q-.16 0-.293-.088-.128-.092-.192-.232-.06-.148-.032-.3.032-.157.148-.273l2.395-2.395h-2.503v-1.041h3.765q.156 0 .284.084.132.084.192.236zm6.464 2.319q0 .309-.08.557-.076.244-.204.433-.128.188-.3.32-.173.132-.357.216-.184.084-.376.124-.189.04-.357.04h-4.017v-1.04h4.017q.3 0 .465-.177.168-.176.168-.473 0-.144-.044-.264-.044-.12-.128-.208-.08-.088-.2-.136-.117-.049-.26-.049h-2.396q-.252 0-.544-.088-.293-.092-.545-.292-.248-.2-.417-.525-.164-.324-.164-.793 0-.468.164-.789.169-.324.417-.524.252-.205.545-.293.292-.092.544-.092h3.545v1.042h-3.545q-.296 0-.464.18-.165.18-.165.476 0 .3.165.477.168.172.464.172h2.403q.168.004.357.048.188.04.372.128.188.088.357.225.168.132.296.32.132.188.208.433.076.244.076.552zm5.523 2.107q0 .268-.068.48-.068.217-.18.377-.112.164-.26.276-.149.116-.313.189-.16.072-.324.104-.164.036-.313.036h-1.878v-1.042h1.878q.209 0 .313-.108.104-.108.104-.312v-4.746h1.041zm-1.458-.417h-1.878q-.224 0-.48-.076-.253-.076-.473-.248-.22-.176-.365-.453-.144-.28-.144-.684v-2.868h1.042v2.868q0 .204.108.312.108.108.32.108h1.87zm6.637-1.461q0 .268-.068.484-.068.212-.18.377-.113.16-.26.276-.15.112-.313.184-.16.072-.329.108-.164.032-.312.032h-2.82v-1.04h2.812q.212 0 .32-.109.108-.108.108-.312-.02-.417-.42-.417h-1.614q-.345 0-.585-.12t-.392-.3q-.149-.18-.217-.389-.064-.208-.064-.388 0-.349.124-.585.125-.24.313-.389.188-.148.408-.212.22-.068.413-.068h2.559v1.041h-2.551q-.08 0-.128.02-.044.016-.068.048-.02.028-.024.064-.004.033-.004.065.004.064.024.1.02.036.048.052.032.016.068.02h1.69q.4 0 .68.144.281.144.453.364.173.217.249.473.08.256.08.477zm4.593-1.827h-1.818v3.288h-1.053v-3.288h-1.354v-1.041h1.354v-1.414h1.053v1.414h1.818zm5.327.393q0 .216-.076.468-.076.249-.248.465-.168.212-.445.356-.272.145-.665.145h-1.878v-.99h1.878q.213 0 .329-.128.116-.132.116-.324 0-.204-.132-.32-.128-.117-.313-.117h-1.878q-.212 0-.328.132-.117.129-.117.32v1.455q0 .208.129.324.132.116.324.116h1.87v.993h-1.878q-.216 0-.469-.076-.248-.076-.464-.244-.212-.172-.357-.445-.144-.276-.144-.668V55.21q0-.216.076-.465.076-.252.245-.464.172-.217.444-.36.276-.145.669-.145h1.878q.217 0 .465.076.252.076.465.248.216.169.36.445.144.272.144.665zm4.566 2.895h-1.041v-2.871q0-.204-.109-.309-.108-.108-.32-.108h-1.354v3.288h-1.041v-3.812q0-.108.04-.2.04-.097.112-.165.072-.072.168-.112.096-.04.205-.04h1.878q.216 0 .465.076.248.076.472.244v-.32h1.41q.148 0 .312.036.165.032.325.104.164.072.312.188.148.113.26.277.113.16.18.372.069.212.069.48v2.872h-1.042v-2.871q0-.204-.104-.309-.1-.108-.312-.108h-.937q.052.193.052.417zm7.485-1.461q0 .268-.068.484-.068.212-.18.377-.112.16-.26.276-.149.112-.313.184-.16.072-.328.108-.164.032-.313.032h-2.82v-1.04h2.812q.213 0 .32-.109.109-.108.109-.312-.02-.417-.42-.417h-1.615q-.344 0-.584-.12t-.393-.3q-.148-.18-.216-.389-.064-.208-.064-.388 0-.349.124-.585.124-.24.312-.389.189-.148.409-.212.22-.068.412-.068h2.56v1.041h-2.552q-.08 0-.128.02-.044.016-.068.048-.02.028-.024.064-.004.033-.004.065.004.064.024.1.02.036.048.052.032.016.068.02h1.69q.4 0 .681.144.28.144.453.364.172.217.248.473.08.256.08.477z" style="font-family:Audiowide;-inkscape-font-specification:'Audiowide, Normal'" transform="translate(-134.72 -51.096)" aria-label="ezSystems"/></g><g style="font-size:4.94397px;line-height:1.25;font-family:Neuropolitical;-inkscape-font-specification:Neuropolitical;letter-spacing:0;word-spacing:0;opacity:.5;fill:#497592;stroke-width:.5;stroke-linejoin:round;stroke-opacity:.137778;paint-order:stroke markers fill"><path d="M158.907 65.632h-.627V62.17h.627zm3.863-2.834h-1.383v2.834h-.628v-2.834h-1.386v-.628h3.397zm5.115 2.834h-2.264q-.087 0-.189-.02-.098-.021-.197-.065-.097-.043-.186-.11-.09-.07-.16-.167-.067-.1-.108-.227-.041-.13-.041-.292v-1.7q0-.087.019-.186.022-.101.065-.198.044-.099.114-.188.07-.09.166-.157.1-.07.227-.11.128-.042.29-.042h2.264v.628h-2.264q-.123 0-.188.065-.066.065-.066.193v1.695q0 .12.066.188.067.065.188.065h2.264zm3.332-.882q0 .162-.041.293-.041.128-.11.227-.067.096-.156.166-.09.068-.188.111-.097.044-.198.066-.1.019-.189.019h-1.132q-.13 0-.285-.046-.154-.046-.287-.15-.13-.106-.22-.272-.086-.17-.086-.413v-.85q0-.241.086-.408.09-.169.22-.273.133-.106.287-.152.155-.046.285-.046h1.132q.242 0 .41.087.17.087.274.22.103.13.15.285.048.154.048.287zm-.628-.844q0-.13-.065-.193-.066-.063-.189-.063h-1.127q-.125 0-.19.065-.066.063-.066.186v.85q0 .123.065.188.066.065.191.065h1.127q.128 0 .191-.065t.063-.188zm4.053 1.726h-.628v-1.449q0-.123-.043-.22-.041-.098-.114-.168-.072-.07-.17-.106-.098-.039-.21-.039h-1.1v1.982h-.627v-2.298q0-.065.024-.121.024-.058.068-.099.043-.043.101-.068.058-.024.123-.024h1.415q.118 0 .248.027.133.026.261.087.13.058.246.15.119.089.208.22.092.127.145.296.053.169.053.381zm3.073-.882q0 .162-.04.293-.042.128-.11.227-.067.096-.156.166-.09.068-.189.111-.096.044-.198.066-.099.019-.188.019h-1.7v-.628h1.695q.128 0 .193-.065.066-.065.066-.188-.013-.251-.254-.251h-.973q-.207 0-.352-.073-.145-.072-.237-.18-.09-.11-.13-.235-.039-.125-.039-.234 0-.21.075-.353.075-.144.188-.234.114-.089.247-.128.132-.04.248-.04h1.543v.627h-1.538q-.048 0-.077.012-.027.01-.041.029-.012.017-.015.039l-.002.038q.002.039.015.06.012.022.029.032.02.01.04.012h1.02q.241 0 .41.087.169.087.273.22.104.13.15.284.048.155.048.288zm3.293.566q0 .067-.024.125-.024.058-.068.102-.04.04-.099.065-.055.024-.12.024h-1.42q-.116 0-.249-.027-.13-.026-.258-.084-.128-.06-.249-.15-.118-.092-.207-.22-.09-.13-.145-.299-.053-.169-.053-.381v-1.449h.628v1.449q0 .123.04.222.044.096.116.166.073.07.17.109.098.036.212.036h1.098v-1.982h.628zm1.736.316h-.28q-.136 0-.29-.046-.152-.046-.285-.15-.133-.106-.22-.272-.087-.17-.087-.413v-2.832h.628v2.832q0 .116.073.186.072.067.18.067h.28zm2.682-1.982h-1.096v1.982h-.635V63.65h-.816v-.628h.816v-.852h.635v.852h1.096zm1.05-1.164h-.628v-.567h.628zm0 3.146h-.628v-2.61h.628zm3.493 0h-.628v-1.449q0-.123-.043-.22-.041-.098-.114-.168-.072-.07-.171-.106-.097-.039-.21-.039h-1.099v1.982h-.627v-2.298q0-.065.024-.121.024-.058.068-.099.043-.043.1-.068.059-.024.124-.024h1.415q.118 0 .248.027.133.026.261.087.13.058.246.15.119.089.208.22.092.127.145.296.053.169.053.381zm3.389.251q0 .162-.04.29-.042.13-.11.227-.067.099-.156.166-.09.07-.189.114-.096.043-.198.062-.099.022-.188.022h-1.132v-.628h1.132q.128 0 .19-.065.064-.065.064-.188V63.9q0-.123-.063-.186-.063-.065-.19-.065h-1.133q-.116 0-.184.072-.067.07-.067.179v.85q0 .123.065.188t.19.065h1.128v.628h-1.132q-.09 0-.188-.02-.1-.021-.198-.065-.097-.043-.186-.11-.09-.07-.157-.167-.068-.1-.109-.227-.04-.13-.04-.292v-.85q0-.09.019-.188.021-.1.065-.196.043-.099.11-.188.07-.09.167-.157.1-.068.227-.109.128-.04.29-.04h1.132q.09 0 .188.021.102.02.198.063.1.043.189.113.089.068.157.167.067.096.108.224.041.128.041.29z" style="font-family:Audiowide;-inkscape-font-specification:'Audiowide, Normal'" transform="translate(-134.72 -51.096)" aria-label="IT Consulting"/></g><path d="M143.57 67.119c-.311-.459-.609-.991-1.018-1.405-.97-1.039-2.086-1.928-3.074-2.95-.67-.66-1.497-1.384-1.496-2.407-.052-.683.044-1.37.372-1.98.205-.356.51-.94.77-1.068.034.776.068 1.59.527 2.251.855 1.443 2.036 2.676 2.76 4.2.749 1.642 1.484 4.497 1.16 3.359zm-4.17-1.889c-2.065-.856-3.886-2.587-4.386-4.822-.188-.73-.154-1.501-.093-2.246.273-.628.265-1.307.033-1.947-.156-.948-.03-1.694.424-2.806.34-.632.31-1.38 1.111-2.026.03.6.44 1.37 1.117.92.652-.163 1.33-.113 1.978.037.674-.046-.394-2.001.636-.57.522.497.868.972 1.011 1.92.037 1.51-.117 2.194-.682 3.343-.417.8-.266.85-.639-.178-.21-.973-.578-2.022-1.415-2.627-.56-.314-1.283.063-1.442.663-.275.725.037 1.551.657 1.988.292.127.087.348-.008.548-.56.989-.977 2.209-.512 3.319.541 1.491 1.857 2.485 3.008 3.499.765.658 1.55 1.304 2.194 2.085-.651-.203-2.293-.779-2.991-1.1zm3.769-.686c-.476-1.39-1.168-3.057-2.187-4.128-.505-.56-.462-1.381-.113-2.008.228-.524.645-.921 1.053-1.306.581.823.875 1.809 1.274 2.725.872 1.81.104 3.416-.027 4.717zm-4.987-8.527c-.331-.18-.529-.692-.49-1.406 1.06.646 1.266.908 1.246 1.374a.893.893 0 0 1-.756.032z" style="fill:#497592;fill-opacity:1;stroke:none;stroke-width:.303756;stroke-linejoin:round;stroke-miterlimit:4;stroke-dasharray:none;stroke-opacity:.137778;paint-order:stroke markers fill" transform="translate(-134.72 -51.096)"/></g></svg>